<svg xmlns="http://www.w3.org/2000/svg" xmlns:xlink="http://www.w3.org/1999/xlink" x="0" y="0" width="361.6000061035156" height="276.6000061035156" style="
        width:361.6000061035156px;
        height:276.6000061035156px;
        background: #FFF;
        fill: none;
">
        
        
        <svg xmlns="http://www.w3.org/2000/svg" class="role-diagram-draw-area"><g class="shapes-region" style="stroke: black; fill: none;"><g class="composite-shape"><path class="real" d=" M103.36,130 C103.36,112.7 117.38,98.68 134.68,98.68 C151.98,98.68 166,112.7 166,130 C166,147.3 151.98,161.32 134.68,161.32 C117.38,161.32 103.36,147.3 103.36,130 Z" style="stroke-width: 1; stroke: rgb(155, 155, 155); stroke-opacity: 1; fill: rgb(190, 206, 222); fill-opacity: 0.57;"/></g><g class="grouped-shape"><g class="grouped-shape"><g class="grouped-shape"><g class="composite-shape"><defs><!-- react-text: 21990 --> <!-- /react-text --><linearGradient id="_pgfz8e13bjkt" gradientTransform=" translate(0,0) rotate(0 0.5 0.5)" x1="0" y1="0.5" x2="1" y2="0.5"><!-- react-text: 21992 --> <!-- /react-text --><stop offset="0" style="stop-color: rgb(242, 246, 248); stop-opacity: 1;"/><stop offset="0.6" style="stop-color: rgb(216, 225, 231); stop-opacity: 1;"/><stop offset="0.88" style="stop-color: rgb(181, 198, 208); stop-opacity: 1;"/><stop offset="1" style="stop-color: rgb(224, 239, 249); stop-opacity: 1;"/></linearGradient><filter id="_bsdz8e13bjkt" height="150%" width="150%" filterUnits="userSpaceOnUse"><feGaussianBlur in="SourceGraphic" stdDeviation="1"/><feOffset dx="0" dy="0" result="offsetblur"/><feFlood flood-color="rgb(148,92,92)" flood-opacity="1"/><feComposite in2="offsetblur" operator="in"/><feMerge><feMergeNode/><feMergeNode in="SourceGraphic"/></feMerge></filter></defs><path class="real" d=" M66.34,106.08 L66.44,139.28 L52.28,139.24 L52.18,106.05 Z" style="stroke-width: 1; stroke: rgb(0, 0, 0); stroke-opacity: 1; fill: url(&quot;#_pgfz8e13bjkt&quot;); fill-opacity: 1; filter: url(&quot;#_bsdz8e13bjkt&quot;);"/></g><g class="composite-shape"><defs><!-- react-text: 22008 --> <!-- /react-text --><linearGradient id="_pgfvtwe5ybz1" gradientTransform=" translate(0,0) rotate(0 0.5 0.5)" x1="0" y1="0.5" x2="1" y2="0.5"><!-- react-text: 22010 --> <!-- /react-text --><stop offset="0" style="stop-color: rgb(242, 246, 248); stop-opacity: 1;"/><stop offset="0.6" style="stop-color: rgb(216, 225, 231); stop-opacity: 1;"/><stop offset="0.88" style="stop-color: rgb(181, 198, 208); stop-opacity: 1;"/><stop offset="1" style="stop-color: rgb(224, 239, 249); stop-opacity: 1;"/></linearGradient><filter id="_bsdvtwe5ybz1" height="150%" width="150%" filterUnits="userSpaceOnUse"><feGaussianBlur in="SourceGraphic" stdDeviation="1"/><feOffset dx="0" dy="0" result="offsetblur"/><feFlood flood-color="rgb(148,92,92)" flood-opacity="1"/><feComposite in2="offsetblur" operator="in"/><feMerge><feMergeNode/><feMergeNode in="SourceGraphic"/></feMerge></filter></defs><path class="real" d=" M72.72,139.16 L72.73,141.98 L45.81,141.92 L45.8,139.1 Z" style="stroke-width: 1; stroke: rgb(0, 0, 0); stroke-opacity: 1; fill: url(&quot;#_pgfvtwe5ybz1&quot;); fill-opacity: 1; filter: url(&quot;#_bsdvtwe5ybz1&quot;);"/></g><g class="composite-shape"><defs><!-- react-text: 22026 --> <!-- /react-text --><linearGradient id="_pgft1rklcmpm" gradientTransform=" translate(0,0) rotate(0 0.5 0.5)" x1="0" y1="0.5" x2="1" y2="0.5"><!-- react-text: 22028 --> <!-- /react-text --><stop offset="0" style="stop-color: rgb(242, 246, 248); stop-opacity: 1;"/><stop offset="0.6" style="stop-color: rgb(216, 225, 231); stop-opacity: 1;"/><stop offset="0.88" style="stop-color: rgb(181, 198, 208); stop-opacity: 1;"/><stop offset="1" style="stop-color: rgb(224, 239, 249); stop-opacity: 1;"/></linearGradient><filter id="_bsdt1rklcmpm" height="150%" width="150%" filterUnits="userSpaceOnUse"><feGaussianBlur in="SourceGraphic" stdDeviation="1"/><feOffset dx="0" dy="0" result="offsetblur"/><feFlood flood-color="rgb(148,92,92)" flood-opacity="1"/><feComposite in2="offsetblur" operator="in"/><feMerge><feMergeNode/><feMergeNode in="SourceGraphic"/></feMerge></filter></defs><path class="real" d=" M72.44,103.42 L72.45,106.23 L45.53,106.17 L45.52,103.36 Z" style="stroke-width: 1; stroke: rgb(0, 0, 0); stroke-opacity: 1; fill: url(&quot;#_pgft1rklcmpm&quot;); fill-opacity: 1; filter: url(&quot;#_bsdt1rklcmpm&quot;);"/></g></g><g class="composite-shape"><path class="real" d=" M53.1,143.83 L47.1,141.94 L71.05,142.04 L64.98,143.88 Z" style="stroke-width: 1; stroke: rgb(0, 0, 0); stroke-opacity: 1; fill: rgb(128, 128, 128); fill-opacity: 1;"/></g><g class="composite-shape"><path class="real" d=" M64.69,101.49 L70.78,103.35 L46.83,103.36 L52.81,101.49 Z" style="stroke-width: 1; stroke: rgb(0, 0, 0); stroke-opacity: 1; fill: rgb(128, 128, 128); fill-opacity: 1;"/></g></g><g class="arrow-line"><path class="connection real" stroke-dasharray="1.125 3.35" d="  M66.19,137.48 L52.23,137.44" style="stroke: rgb(0, 0, 0); stroke-opacity: 1; stroke-width: 1; fill: none; fill-opacity: 1;"/></g><g class="arrow-line"><path class="connection real" stroke-dasharray="1.125 3.35" d="  M66.53,108.1 L52.56,108.06" style="stroke: rgb(0, 0, 0); stroke-opacity: 1; stroke-width: 1; fill: none; fill-opacity: 1;"/></g></g><g class="arrow-line"><path class="connection real" stroke-dasharray="" d="  M58.77,181.46 L58.77,148.39" style="stroke: rgb(0, 0, 0); stroke-opacity: 1; stroke-width: 1; fill: none; fill-opacity: 1;"/><g stroke="rgb(0,0,0)" stroke-opacity="1" transform="matrix(3.061616997868383e-16,1,-1,3.061616997868383e-16,58.771465275153815,146.39211108378765)" style="stroke: rgb(0, 0, 0); stroke-width: 1;"><path d=" M10.93,-3.29 Q4.96,-0.45 0,0 Q4.96,0.45 10.93,3.29"/></g></g><g class="arrow-line"><path class="connection real" stroke-dasharray="" d="  M58.6,98.74 L58.6,64.46" style="stroke: rgb(0, 0, 0); stroke-opacity: 1; stroke-width: 1; fill: none; fill-opacity: 1;"/><g stroke="rgb(0,0,0)" stroke-opacity="1" transform="matrix(3.061616997868383e-16,1,-1,3.061616997868383e-16,58.60476605640384,62.45556131998704)" style="stroke: rgb(0, 0, 0); stroke-width: 1;"><path d=" M10.93,-3.29 Q4.96,-0.45 0,0 Q4.96,0.45 10.93,3.29"/></g></g><g class="composite-shape axis2d" style="stroke-width: 1; stroke: rgb(0, 0, 0); stroke-opacity: 1;"><path class="real" d=" M98,252.14 L197.29,252.14 M107.93,185.86 L107.93,259.51"/><path d=" M190.29,247.14 L197.29,252.14 L190.29,257.14"/><path d=" M102.93,192.86 L107.93,185.86 L112.93,192.86"/></g><g class="arrow-line"><path class="connection real" stroke-dasharray="" d="  M107.93,200.97 L178.73,200.97" style="stroke: rgb(80, 227, 194); stroke-opacity: 1; stroke-width: 1; fill: none; fill-opacity: 1;"/></g><g class="arrow-line"><path class="connection real" stroke-dasharray="" d="  M107.93,252.14 L107.93,200.97" style="stroke: rgb(80, 227, 194); stroke-opacity: 1; stroke-width: 1; fill: none; fill-opacity: 1;"/></g><g class="arrow-line"><path class="connection real" stroke-dasharray="" d="  M59.33,125.28 L127.4,99.72" style="stroke: rgb(0, 0, 0); stroke-opacity: 1; stroke-width: 1; fill: none; fill-opacity: 1;"/></g><g class="arrow-line"><path class="connection real" stroke-dasharray="" d="  M59.33,125.28 L120.2,157.6" style="stroke: rgb(0, 0, 0); stroke-opacity: 1; stroke-width: 1; fill: none; fill-opacity: 1;"/></g><g class="composite-shape"><defs><!-- react-text: 22081 --> <!-- /react-text --><radialGradient id="_pgfgrnu5orbw" gradientTransform="matrix(1.32, 0, 0, 1.32, -0.16, -0.16)" cx="0.5" cy="0.5" fx="0.41" fy="0.39"><!-- react-text: 22083 --> <!-- /react-text --><stop offset="0" style="stop-color: rgb(255, 255, 255); stop-opacity: 1;"/><stop offset="1" style="stop-color: rgb(0, 0, 0); stop-opacity: 1;"/></radialGradient></defs><path class="real" d=" M110.36,116.4 C110.36,113.24 112.92,110.68 116.08,110.68 C119.24,110.68 121.8,113.24 121.8,116.4 C121.8,119.56 119.24,122.12 116.08,122.12 C112.92,122.12 110.36,119.56 110.36,116.4 Z" style="stroke-width: 1; stroke: rgb(0, 0, 0); fill: url(&quot;#_pgfgrnu5orbw&quot;); fill-opacity: 1;"/></g><g class="composite-shape"><defs><!-- react-text: 22089 --> <!-- /react-text --><radialGradient id="_pgfclysf0lc6" gradientTransform="matrix(1.32, 0, 0, 1.32, -0.16, -0.16)" cx="0.5" cy="0.5" fx="0.41" fy="0.39"><!-- react-text: 22091 --> <!-- /react-text --><stop offset="0" style="stop-color: rgb(255, 255, 255); stop-opacity: 1;"/><stop offset="1" style="stop-color: rgb(0, 0, 0); stop-opacity: 1;"/></radialGradient></defs><path class="real" d=" M122.3,105.72 C122.3,102.41 124.99,99.72 128.3,99.72 C131.61,99.72 134.3,102.41 134.3,105.72 C134.3,109.03 131.61,111.72 128.3,111.72 C124.99,111.72 122.3,109.03 122.3,105.72 Z" style="stroke-width: 1; stroke: rgb(0, 0, 0); fill: url(&quot;#_pgfclysf0lc6&quot;); fill-opacity: 1;"/></g><g class="composite-shape"><defs><!-- react-text: 22097 --> <!-- /react-text --><radialGradient id="_pgf3stv1s38g" gradientTransform="matrix(1.32, 0, 0, 1.32, -0.16, -0.16)" cx="0.5" cy="0.5" fx="0.41" fy="0.39"><!-- react-text: 22099 --> <!-- /react-text --><stop offset="0" style="stop-color: rgb(255, 255, 255); stop-opacity: 1;"/><stop offset="1" style="stop-color: rgb(0, 0, 0); stop-opacity: 1;"/></radialGradient></defs><path class="real" d=" M142.3,113.32 C142.3,110.23 144.81,107.72 147.9,107.72 C150.99,107.72 153.5,110.23 153.5,113.32 C153.5,116.41 150.99,118.92 147.9,118.92 C144.81,118.92 142.3,116.41 142.3,113.32 Z" style="stroke-width: 1; stroke: rgb(0, 0, 0); fill: url(&quot;#_pgf3stv1s38g&quot;); fill-opacity: 1;"/></g><g class="composite-shape"><defs><!-- react-text: 22105 --> <!-- /react-text --><radialGradient id="_pgfmsj0rjp3p" gradientTransform="matrix(1.32, 0, 0, 1.32, -0.16, -0.16)" cx="0.5" cy="0.5" fx="0.41" fy="0.39"><!-- react-text: 22107 --> <!-- /react-text --><stop offset="0" style="stop-color: rgb(255, 255, 255); stop-opacity: 1;"/><stop offset="1" style="stop-color: rgb(0, 0, 0); stop-opacity: 1;"/></radialGradient></defs><path class="real" d=" M119.1,135.72 C119.1,132.63 121.61,130.12 124.7,130.12 C127.79,130.12 130.3,132.63 130.3,135.72 C130.3,138.81 127.79,141.32 124.7,141.32 C121.61,141.32 119.1,138.81 119.1,135.72 Z" style="stroke-width: 1; stroke: rgb(0, 0, 0); fill: url(&quot;#_pgfmsj0rjp3p&quot;); fill-opacity: 1;"/></g><g class="composite-shape"><defs><!-- react-text: 22113 --> <!-- /react-text --><radialGradient id="_pgf8duxxslzb" gradientTransform="matrix(1.32, 0, 0, 1.32, -0.16, -0.16)" cx="0.5" cy="0.5" fx="0.41" fy="0.39"><!-- react-text: 22115 --> <!-- /react-text --><stop offset="0" style="stop-color: rgb(255, 255, 255); stop-opacity: 1;"/><stop offset="1" style="stop-color: rgb(0, 0, 0); stop-opacity: 1;"/></radialGradient></defs><path class="real" d=" M139.1,132.92 C139.1,129.61 141.79,126.92 145.1,126.92 C148.41,126.92 151.1,129.61 151.1,132.92 C151.1,136.23 148.41,138.92 145.1,138.92 C141.79,138.92 139.1,136.23 139.1,132.92 Z" style="stroke-width: 1; stroke: rgb(0, 0, 0); fill: url(&quot;#_pgf8duxxslzb&quot;); fill-opacity: 1;"/></g><g class="arrow-line"><path class="connection real" stroke-dasharray="" d="  M139.4,158.12 C164.61,149.72 159.18,133.29 157.94,119.98" style="stroke: rgb(80, 227, 194); stroke-opacity: 1; stroke-width: 1; fill: none; fill-opacity: 1;"/><g stroke="rgb(80,227,194)" stroke-opacity="1" transform="matrix(0.05878368831860063,0.9982707438303807,-0.9982707438303807,0.05878368831860063,157.80000000000004,118.11999511718753)" style="stroke: rgb(80, 227, 194); stroke-width: 1;"><path d=" M10.93,-3.29 Q4.96,-0.45 0,0 Q4.96,0.45 10.93,3.29"/></g></g><g class="arrow-line"><path class="connection real" stroke-dasharray="" d="  M120.2,157.6 C145.68,149.11 132.41,137.38 135.77,120.75" style="stroke: rgb(80, 227, 194); stroke-opacity: 1; stroke-width: 1; fill: none; fill-opacity: 1;"/><g stroke="rgb(80,227,194)" stroke-opacity="1" transform="matrix(-0.2631995976047477,0.964741401527217,-0.964741401527217,-0.2631995976047477,136.20000000000007,118.91999511718754)" style="stroke: rgb(80, 227, 194); stroke-width: 1;"><path d=" M10.93,-3.29 Q4.96,-0.45 0,0 Q4.96,0.45 10.93,3.29"/></g></g><g class="arrow-line"><path class="connection real" stroke-dasharray="" d="  M105.8,138.4 C131.67,129.78 109.14,127.8 134.58,111.16" style="stroke: rgb(80, 227, 194); stroke-opacity: 1; stroke-width: 1; fill: none; fill-opacity: 1;"/><g stroke="rgb(80,227,194)" stroke-opacity="1" transform="matrix(-0.8466578661382483,0.5321376304173836,-0.5321376304173836,-0.8466578661382483,136.20000000000005,110.11999511718751)" style="stroke: rgb(80, 227, 194); stroke-width: 1;"><path d=" M10.93,-3.29 Q4.96,-0.45 0,0 Q4.96,0.45 10.93,3.29"/></g></g><g class="arrow-line"><path class="connection real" stroke-dasharray="6 6" d="  M231.4,103.24 L155.48,113.06" style="stroke: rgb(0, 0, 0); stroke-opacity: 1; stroke-width: 1; fill: none; fill-opacity: 1;"/><g stroke="rgb(0,0,0)" stroke-opacity="1" transform="matrix(0.9917384636605427,-0.1282763411398468,0.1282763411398468,0.9917384636605427,153.5,113.31999511718755)" style="stroke: rgb(0, 0, 0); stroke-width: 1;"><path d=" M10.93,-3.29 Q4.96,-0.45 0,0 Q4.96,0.45 10.93,3.29"/></g></g><g class="arrow-line"><path class="connection real" stroke-dasharray="6 6" d="  M232.2,130.92 L187.08,134.96 L162.69,137.14" style="stroke: rgb(0, 0, 0); stroke-opacity: 1; stroke-width: 1; fill: none; fill-opacity: 1;"/><g stroke="rgb(0,0,0)" stroke-opacity="1" transform="matrix(0.9960255352586098,-0.08906813747238629,0.08906813747238629,0.9960255352586098,160.70000000000005,137.31999511718755)" style="stroke: rgb(0, 0, 0); stroke-width: 1;"><path d=" M10.93,-3.29 Q4.96,-0.45 0,0 Q4.96,0.45 10.93,3.29"/></g></g><g class="composite-shape axis2d" style="stroke-width: 1; stroke: rgb(0, 0, 0); stroke-opacity: 1;"><path class="real" d=" M98,85.74 L197.29,85.74 M107.93,19.46 L107.93,93.11"/><path d=" M190.29,80.74 L197.29,85.74 L190.29,90.74"/><path d=" M102.93,26.46 L107.93,19.46 L112.93,26.46"/></g><g class="arrow-line"><path class="connection real" stroke-dasharray="" d="  M105.36,85.74 C122.38,84.66 122.62,86.03 133.38,85.66 C144.13,85.3 143.54,36.22 169.62,37.03" style="stroke: rgb(80, 227, 194); stroke-opacity: 1; stroke-width: 1; fill: none; fill-opacity: 1;"/></g><g/></g><g/><g/><g/></svg>
        <svg xmlns="http://www.w3.org/2000/svg" xmlns:xlink="http://www.w3.org/1999/xlink" width="360" height="275" style="width:360px;height:275px;font-family:LatinModern-Math, LatinModern, Asana-Math, Asana;background:#FFF;"><g><g><g><g transform="matrix(1,0,0,1,52.4000244140625,197.50000915527343)"><path transform="matrix(0.0136,0,0,-0.0136,0,0)" d="M638 0L377 694L289 694L28 0L102 0L179 204L470 204L546 0ZM448 260L200 260C251 403 214 298 265 441C286 500 317 585 324 622L325 622C327 608 334 583 357 517Z" stroke="rgb(80,227,194)" stroke-opacity="1" stroke-width="8" fill="rgb(80,227,194)" fill-opacity="1"></path></g></g><g><g transform="matrix(1,0,0,1,61.4749755859375,197.50000915527343)"><path transform="matrix(0.0136,0,0,-0.0136,0,0)" d="" stroke="rgb(0,0,0)" stroke-opacity="1" stroke-width="8" fill="rgb(0,0,0)" fill-opacity="1"></path></g></g></g></g><g><g><g><g transform="matrix(1,0,0,1,198.4625244140625,255.79999694824218)"><path transform="matrix(0.0136,0,0,-0.0136,0,0)" d="M332 27L316 86C290 65 258 53 226 53C189 53 175 83 175 136L175 386L316 386L316 444L175 444L175 571L106 571L106 444L19 444L19 386L103 386L103 119C103 59 117 -11 186 -11C256 -11 307 14 332 27Z" stroke="rgb(0,0,0)" stroke-opacity="1" stroke-width="8" fill="rgb(0,0,0)" fill-opacity="1"></path></g></g></g></g><g><g><g><g transform="matrix(1,0,0,1,104.4625244140625,181.79999694824218)"><path transform="matrix(0.0136,0,0,-0.0136,0,0)" d="M415 40L409 107C358 67 304 53 253 53C170 53 114 125 114 223C114 301 151 397 257 397C309 397 343 389 398 353L410 418C351 452 317 461 256 461C117 461 36 340 36 222C36 98 127 -11 252 -11C306 -11 361 3 415 40Z" stroke="rgb(0,0,0)" stroke-opacity="1" stroke-width="8" fill="rgb(0,0,0)" fill-opacity="1"></path></g></g></g></g><g><g><g><g transform="matrix(1,0,0,1,127.79998779296875,189.39998474121094)"><path transform="matrix(0.0119,0,0,-0.0119,0,0)" d="M183 0L183 694L94 694L94 0ZM713 0L713 298C713 364 698 455 576 455C486 455 437 387 431 379L431 450L359 450L359 0L437 0L437 245C437 311 462 394 538 394C634 394 635 323 635 291L635 0ZM951 0L951 694L876 694L876 0ZM1448 219C1448 253 1447 328 1408 388C1367 450 1306 461 1270 461C1159 461 1069 355 1069 226C1069 94 1165 -11 1285 -11C1348 -11 1405 13 1444 41L1438 106C1375 54 1309 50 1286 50C1206 50 1142 121 1139 219ZM1391 274L1144 274C1160 350 1213 400 1270 400C1322 400 1378 366 1391 274ZM1810 27L1794 86C1768 65 1736 53 1704 53C1667 53 1653 83 1653 136L1653 386L1794 386L1794 444L1653 444L1653 571L1584 571L1584 444L1497 444L1497 386L1581 386L1581 119C1581 59 1595 -11 1664 -11C1734 -11 1785 14 1810 27Z" stroke="rgb(255,255,255)" stroke-opacity="1" stroke-width="8" fill="rgb(255,255,255)" fill-opacity="1"></path></g></g></g></g><g><g><g><g transform="matrix(1,0,0,1,236.4000244140625,101.97499084472656)"><path transform="matrix(0.0135,0,0,-0.0135,0,0)" d="M32 0C55 1 98 3 134 3C165 3 217 1 249 0L249 31C199 31 174 56 174 82C174 85 175 95 176 97L222 228L469 228L522 75C523 71 525 65 525 61C525 31 469 31 442 31L442 0C478 3 548 3 586 3C629 3 675 2 717 0L717 31L699 31C639 31 625 38 614 71L398 696C393 709 391 716 375 716C359 716 356 710 351 696L144 98C126 47 86 32 32 31ZM233 259L345 584L458 259ZM756 215C756 88 854 -11 968 -11C1032 -11 1077 23 1102 55L1102 -11L1249 0L1249 31C1179 31 1171 38 1171 87L1171 694L1027 683L1027 652C1097 652 1105 645 1105 596L1105 380C1076 416 1033 442 979 442C861 442 756 344 756 215ZM839 214C839 251 841 311 870 356C891 387 929 420 983 420C1018 420 1060 405 1091 360C1102 343 1102 341 1102 323L1102 118C1102 100 1102 98 1091 81C1061 33 1016 11 973 11C928 11 892 37 868 75C842 116 839 173 839 214ZM1310 13C1310 -4 1310 -11 1321 -11C1326 -11 1327 -10 1346 9C1348 11 1348 13 1366 32C1410 -10 1455 -11 1476 -11C1591 -11 1637 56 1637 128C1637 181 1607 211 1595 223C1562 255 1523 263 1481 271C1425 282 1358 295 1358 353C1358 388 1384 429 1470 429C1580 429 1585 339 1587 308C1588 299 1597 299 1599 299C1612 299 1612 304 1612 323L1612 424C1612 441 1612 448 1601 448C1596 448 1594 448 1581 436C1578 432 1568 423 1564 420C1526 448 1485 448 1470 448C1348 448 1310 381 1310 325C1310 290 1326 262 1353 240C1385 214 1413 208 1485 194C1507 190 1589 174 1589 102C1589 51 1554 11 1476 11C1392 11 1356 68 1337 153C1334 166 1333 170 1323 170C1310 170 1310 163 1310 145ZM1699 214C1699 85 1803 -11 1920 -11C2041 -11 2142 87 2142 214C2142 342 2042 448 1921 448C1796 448 1699 339 1699 214ZM1782 222C1782 261 1782 315 1806 359C1833 405 1880 426 1920 426C1964 426 2007 404 2033 361C2059 318 2059 260 2059 222C2059 186 2059 132 2037 88C2015 43 1971 14 1921 14C1878 14 1834 35 1807 81C1782 125 1782 186 1782 222ZM2199 0C2238 1 2285 3 2313 3C2353 3 2400 3 2440 0L2440 31L2419 31C2345 31 2343 42 2343 78L2343 232C2343 331 2385 420 2461 420C2468 420 2470 420 2472 419C2469 418 2449 406 2449 380C2449 352 2470 337 2492 337C2510 337 2535 349 2535 381C2535 413 2504 442 2461 442C2388 442 2352 375 2338 332L2338 442L2199 431L2199 400C2269 400 2277 393 2277 344L2277 76C2277 31 2266 31 2199 31ZM2590 652C2660 652 2668 645 2668 596L2668 0L2693 0C2694 1 2702 15 2729 62C2744 39 2786 -11 2860 -11C2979 -11 3083 87 3083 216C3083 343 2985 442 2871 442C2793 442 2750 395 2734 377L2734 694L2590 683ZM2737 114L2737 320C2737 339 2737 340 2748 356C2787 412 2842 420 2866 420C2911 420 2947 394 2971 356C2997 315 3000 258 3000 217C3000 180 2998 120 2969 75C2948 44 2910 11 2856 11C2811 11 2775 35 2751 72C2737 93 2737 96 2737 114ZM3173 220C3173 86 3278 -11 3393 -11C3515 -11 3560 100 3560 119C3560 129 3552 131 3547 131C3538 131 3536 125 3534 117C3499 14 3409 14 3399 14C3349 14 3309 44 3286 81C3256 129 3256 195 3256 231L3535 231C3557 231 3560 231 3560 252C3560 351 3506 448 3381 448C3265 448 3173 345 3173 220ZM3257 252C3263 401 3347 426 3381 426C3484 426 3494 291 3494 252ZM3621 0C3656 1 3707 3 3734 3C3760 3 3812 1 3846 0L3846 31C3779 31 3768 31 3768 76L3768 260C3768 364 3839 420 3903 420C3966 420 3977 366 3977 309L3977 76C3977 31 3966 31 3899 31L3899 0C3934 1 3985 3 4012 3C4038 3 4090 1 4124 0L4124 31C4072 31 4047 31 4046 61L4046 252C4046 338 4046 369 4015 405C4001 422 3968 442 3910 442C3837 442 3790 399 3762 337L3762 442L3621 431L3621 400C3691 400 3699 393 3699 344L3699 76C3699 31 3688 31 3621 31ZM4135 400L4220 400L4220 124C4220 1 4313 -11 4349 -11C4420 -11 4448 60 4448 124L4448 181L4423 181L4423 126C4423 52 4393 14 4356 14C4289 14 4289 105 4289 122L4289 400L4432 400L4432 431L4289 431L4289 615L4264 615C4263 533 4233 426 4135 422Z" stroke="rgb(0,0,0)" stroke-opacity="1" stroke-width="8" fill="rgb(0,0,0)" fill-opacity="1"></path></g></g></g></g><g><g><g><g transform="matrix(1,0,0,1,238.79998779296875,129.97499084472656)"><path transform="matrix(0.0135,0,0,-0.0135,0,0)" d="M33 0C68 3 146 3 185 3C226 3 317 3 353 0L353 31L320 31C225 31 225 44 225 79L225 325L311 325C407 325 417 293 417 208L442 208L442 473L417 473C417 389 407 356 311 356L225 356L225 609C225 642 227 649 274 649L394 649C544 649 569 593 585 455L610 455L582 680L33 680L33 649L57 649C134 649 136 638 136 602L136 78C136 42 134 31 57 31L33 31ZM685 0C718 1 771 3 796 3C821 3 870 1 907 0L907 31C840 31 829 31 829 76L829 694L685 683L685 652C755 652 763 645 763 596L763 76C763 31 752 31 685 31ZM961 400C1039 400 1039 397 1039 308L1039 158C1039 80 1039 -11 1191 -11C1247 -11 1291 17 1320 79L1320 -11L1464 0L1464 31C1394 31 1386 38 1386 87L1386 442L1239 431L1239 400C1309 400 1317 393 1317 344L1317 166C1317 79 1269 11 1196 11C1112 11 1108 58 1108 110L1108 442L961 431ZM1559 616C1559 589 1581 563 1612 563C1640 563 1665 584 1665 616C1665 648 1640 669 1612 669C1581 669 1559 642 1559 616ZM1517 0C1549 1 1603 3 1627 3C1662 3 1697 1 1731 0L1731 31C1665 31 1661 36 1661 75L1661 442L1521 431L1521 400C1586 400 1595 394 1595 345L1595 76C1595 31 1584 31 1517 31ZM1795 215C1795 88 1893 -11 2007 -11C2071 -11 2116 23 2141 55L2141 -11L2288 0L2288 31C2218 31 2210 38 2210 87L2210 694L2066 683L2066 652C2136 652 2144 645 2144 596L2144 380C2115 416 2072 442 2018 442C1900 442 1795 344 1795 215ZM1878 214C1878 251 1880 311 1909 356C1930 387 1968 420 2022 420C2057 420 2099 405 2130 360C2141 343 2141 341 2141 323L2141 118C2141 100 2141 98 2130 81C2100 33 2055 11 2012 11C1967 11 1931 37 1907 75C1881 116 1878 173 1878 214ZM2676 0C2730 3 2762 3 2784 3C2822 3 2861 2 2899 0L2899 31L2891 31C2825 31 2821 39 2821 77L2821 400L3031 400L3031 77C3031 39 3027 31 2962 31L2954 31L2954 0C3008 3 3040 3 3062 3C3100 3 3138 2 3176 0L3176 31L3171 31C3107 31 3099 37 3099 76L3099 694C3075 690 3071 690 3064 690C3040 690 3042 705 2969 705C2872 705 2754 657 2754 541L2754 430L2676 430L2676 400L2754 400L2754 77C2754 39 2749 31 2684 31L2676 31ZM2818 430L2818 537C2818 653 2912 682 2969 682C2994 682 3013 679 3031 674L3031 673C3024 668 3007 658 3007 634C3007 610 3024 599 3031 594L3031 430ZM3232 214C3232 85 3336 -11 3453 -11C3574 -11 3675 87 3675 214C3675 342 3575 448 3454 448C3329 448 3232 339 3232 214ZM3315 222C3315 261 3315 315 3339 359C3366 405 3413 426 3453 426C3497 426 3540 404 3566 361C3592 318 3592 260 3592 222C3592 186 3592 132 3570 88C3548 43 3504 14 3454 14C3411 14 3367 35 3340 81C3315 125 3315 186 3315 222ZM3694 400C3744 400 3756 397 3768 365L3894 11C3899 -3 3902 -11 3915 -11C3928 -11 3930 -5 3935 9L4036 292L4138 8C4142 -3 4145 -11 4158 -11C4171 -11 4174 -2 4178 8L4295 336C4313 386 4344 399 4379 400L4379 431C4357 429 4328 428 4306 428C4277 428 4232 430 4213 431L4213 400C4249 399 4271 381 4271 352C4271 346 4271 344 4266 331L4175 75L4076 354C4072 366 4071 368 4071 373C4071 400 4110 400 4130 400L4130 431C4101 430 4050 428 4026 428C3996 428 3967 429 3937 431L3937 400C3974 400 3990 398 4000 385C4005 379 4016 349 4023 330L3937 88L3842 355C3837 367 3837 369 3837 373C3837 400 3876 400 3896 400L3896 431C3866 430 3810 428 3787 428C3783 428 3730 429 3694 431ZM4806 616C4806 589 4828 563 4859 563C4887 563 4912 584 4912 616C4912 648 4887 669 4859 669C4828 669 4806 642 4806 616ZM4764 0C4796 1 4850 3 4874 3C4909 3 4944 1 4978 0L4978 31C4912 31 4908 36 4908 75L4908 442L4768 431L4768 400C4833 400 4842 394 4842 345L4842 76C4842 31 4831 31 4764 31ZM5040 0C5075 1 5126 3 5153 3C5179 3 5231 1 5265 0L5265 31C5198 31 5187 31 5187 76L5187 260C5187 364 5258 420 5322 420C5385 420 5396 366 5396 309L5396 76C5396 31 5385 31 5318 31L5318 0C5353 1 5404 3 5431 3C5457 3 5509 1 5543 0L5543 31C5491 31 5466 31 5465 61L5465 252C5465 338 5465 369 5434 405C5420 422 5387 442 5329 442C5256 442 5209 399 5181 337L5181 442L5040 431L5040 400C5110 400 5118 393 5118 344L5118 76C5118 31 5107 31 5040 31ZM5915 400L6000 400L6000 124C6000 1 6093 -11 6129 -11C6200 -11 6228 60 6228 124L6228 181L6203 181L6203 126C6203 52 6173 14 6136 14C6069 14 6069 105 6069 122L6069 400L6212 400L6212 431L6069 431L6069 615L6044 615C6043 533 6013 426 5915 422ZM6316 0C6351 1 6402 3 6429 3C6455 3 6507 1 6541 0L6541 31C6474 31 6463 31 6463 76L6463 260C6463 364 6534 420 6598 420C6661 420 6672 366 6672 309L6672 76C6672 31 6661 31 6594 31L6594 0C6629 1 6680 3 6707 3C6733 3 6785 1 6819 0L6819 31C6767 31 6742 31 6741 61L6741 252C6741 338 6741 369 6710 405C6696 422 6663 442 6605 442C6521 442 6477 382 6461 346L6460 346L6460 694L6316 683L6316 652C6386 652 6394 645 6394 596L6394 76C6394 31 6383 31 6316 31ZM6867 220C6867 86 6972 -11 7087 -11C7209 -11 7254 100 7254 119C7254 129 7246 131 7241 131C7232 131 7230 125 7228 117C7193 14 7103 14 7093 14C7043 14 7003 44 6980 81C6950 129 6950 195 6950 231L7229 231C7251 231 7254 231 7254 252C7254 351 7200 448 7075 448C6959 448 6867 345 6867 220ZM6951 252C6957 401 7041 426 7075 426C7178 426 7188 291 7188 252Z" stroke="rgb(0,0,0)" stroke-opacity="1" stroke-width="8" fill="rgb(0,0,0)" fill-opacity="1"></path></g></g></g><g><g><g transform="matrix(1,0,0,1,238.79998779296875,148.87498474121094)"><path transform="matrix(0.0135,0,0,-0.0135,0,0)" d="M119 664C119 653 147 421 154 347L177 347C178 358 212 652 212 664C212 701 181 710 165 710C149 710 119 701 119 664ZM287 663C287 649 320 361 322 347L344 347C351 422 379 653 379 664C379 701 349 710 333 710C309 710 287 695 287 663ZM528 220C528 86 633 -11 748 -11C870 -11 915 100 915 119C915 129 907 131 902 131C893 131 891 125 889 117C854 14 764 14 754 14C704 14 664 44 641 81C611 129 611 195 611 231L890 231C912 231 915 231 915 252C915 351 861 448 736 448C620 448 528 345 528 220ZM612 252C618 401 702 426 736 426C839 426 849 291 849 252ZM976 0C1011 1 1062 3 1089 3C1115 3 1167 1 1201 0L1201 31C1134 31 1123 31 1123 76L1123 260C1123 364 1194 420 1258 420C1321 420 1332 366 1332 309L1332 76C1332 31 1321 31 1254 31L1254 0C1289 1 1340 3 1367 3C1393 3 1445 1 1479 0L1479 31C1412 31 1401 31 1401 76L1401 260C1401 364 1472 420 1536 420C1599 420 1610 366 1610 309L1610 76C1610 31 1599 31 1532 31L1532 0C1567 1 1618 3 1645 3C1671 3 1723 1 1757 0L1757 31C1705 31 1680 31 1679 61L1679 252C1679 338 1679 369 1648 405C1634 422 1601 442 1543 442C1459 442 1415 382 1398 344C1384 431 1310 442 1265 442C1192 442 1145 399 1117 337L1117 442L976 431L976 400C1046 400 1054 393 1054 344L1054 76C1054 31 1043 31 976 31ZM1805 -163L1805 -194C1839 -193 1891 -191 1917 -191C1944 -191 1995 -193 2030 -194L2030 -163C1963 -163 1952 -163 1952 -118L1952 50L1952 59C1957 43 1999 -11 2075 -11C2194 -11 2298 87 2298 216C2298 343 2201 442 2089 442C2011 442 1969 398 1949 376L1949 442L1805 431L1805 400C1876 400 1883 394 1883 350L1883 -118C1883 -163 1872 -163 1805 -163ZM1952 114L1952 337C1981 388 2030 417 2081 417C2154 417 2215 329 2215 216C2215 95 2145 11 2071 11C2031 11 1993 31 1966 72C1952 93 1952 94 1952 114ZM2351 400L2436 400L2436 124C2436 1 2529 -11 2565 -11C2636 -11 2664 60 2664 124L2664 181L2639 181L2639 126C2639 52 2609 14 2572 14C2505 14 2505 105 2505 122L2505 400L2648 400L2648 431L2505 431L2505 615L2480 615C2479 533 2449 426 2351 422ZM2711 -124C2711 -169 2753 -205 2803 -205C2866 -205 2907 -148 2931 -91L3107 336C3133 399 3184 400 3200 400L3200 431C3177 429 3148 428 3125 428C3107 428 3060 430 3038 431L3038 400C3069 399 3085 382 3085 357C3085 347 3084 345 3079 333L2978 87L2867 356C2863 366 2861 370 2861 374C2861 400 2898 400 2917 400L2917 431C2891 430 2825 428 2808 428C2781 428 2741 429 2711 431L2711 400C2759 400 2778 400 2792 365L2942 0C2937 -13 2923 -46 2917 -59C2895 -114 2867 -183 2803 -183C2798 -183 2775 -183 2756 -165C2787 -161 2795 -139 2795 -123C2795 -97 2776 -81 2753 -81C2733 -81 2711 -94 2711 -124ZM3585 13C3585 -4 3585 -11 3596 -11C3601 -11 3602 -10 3621 9C3623 11 3623 13 3641 32C3685 -10 3730 -11 3751 -11C3866 -11 3912 56 3912 128C3912 181 3882 211 3870 223C3837 255 3798 263 3756 271C3700 282 3633 295 3633 353C3633 388 3659 429 3745 429C3855 429 3860 339 3862 308C3863 299 3872 299 3874 299C3887 299 3887 304 3887 323L3887 424C3887 441 3887 448 3876 448C3871 448 3869 448 3856 436C3853 432 3843 423 3839 420C3801 448 3760 448 3745 448C3623 448 3585 381 3585 325C3585 290 3601 262 3628 240C3660 214 3688 208 3760 194C3782 190 3864 174 3864 102C3864 51 3829 11 3751 11C3667 11 3631 68 3612 153C3609 166 3608 170 3598 170C3585 170 3585 163 3585 145ZM3974 -163L3974 -194C4008 -193 4060 -191 4086 -191C4113 -191 4164 -193 4199 -194L4199 -163C4132 -163 4121 -163 4121 -118L4121 50L4121 59C4126 43 4168 -11 4244 -11C4363 -11 4467 87 4467 216C4467 343 4370 442 4258 442C4180 442 4138 398 4118 376L4118 442L3974 431L3974 400C4045 400 4052 394 4052 350L4052 -118C4052 -163 4041 -163 3974 -163ZM4121 114L4121 337C4150 388 4199 417 4250 417C4323 417 4384 329 4384 216C4384 95 4314 11 4240 11C4200 11 4162 31 4135 72C4121 93 4121 94 4121 114ZM4543 95C4543 14 4640 -11 4703 -11C4769 -11 4815 29 4834 76C4838 36 4865 -6 4912 -6C4933 -6 4994 8 4994 89L4994 145L4969 145L4969 89C4969 31 4944 25 4933 25C4900 25 4896 70 4896 75L4896 275C4896 317 4896 356 4860 393C4821 432 4771 448 4723 448C4641 448 4572 401 4572 335C4572 305 4592 288 4618 288C4646 288 4664 308 4664 334C4664 346 4659 379 4613 380C4640 415 4689 426 4721 426C4770 426 4827 387 4827 298L4827 261C4776 258 4706 255 4643 225C4568 191 4543 139 4543 95ZM4620 96C4620 151 4662 234 4827 240L4827 140C4827 45 4755 11 4710 11C4661 11 4620 46 4620 96ZM5035 216C5035 88 5134 -11 5250 -11C5384 -11 5416 109 5416 119C5416 129 5406 129 5403 129C5394 129 5392 125 5390 119C5361 26 5296 14 5259 14C5206 14 5118 57 5118 218C5118 381 5200 423 5253 423C5262 423 5325 422 5360 386C5319 383 5313 353 5313 340C5313 314 5331 294 5359 294C5385 294 5405 311 5405 341C5405 409 5329 448 5252 448C5127 448 5035 340 5035 216ZM5473 220C5473 86 5578 -11 5693 -11C5815 -11 5860 100 5860 119C5860 129 5852 131 5847 131C5838 131 5836 125 5834 117C5799 14 5709 14 5699 14C5649 14 5609 44 5586 81C5556 129 5556 195 5556 231L5835 231C5857 231 5860 231 5860 252C5860 351 5806 448 5681 448C5565 448 5473 345 5473 220ZM5557 252C5563 401 5647 426 5681 426C5784 426 5794 291 5794 252ZM6008 664C6008 653 6036 421 6043 347L6066 347C6067 358 6101 652 6101 664C6101 701 6070 710 6054 710C6038 710 6008 701 6008 664ZM6176 663C6176 649 6209 361 6211 347L6233 347C6240 422 6268 653 6268 664C6268 701 6238 710 6222 710C6198 710 6176 695 6176 663Z" stroke="rgb(0,0,0)" stroke-opacity="1" stroke-width="8" fill="rgb(0,0,0)" fill-opacity="1"></path></g></g></g></g><g><g><g><g transform="matrix(1,0,0,1,128.79998779296875,22.99999084472656)"><path transform="matrix(0.0119,0,0,-0.0119,0,0)" d="M679 345C679 555 534 716 368 716C198 716 56 553 56 345C56 133 204 -22 367 -22C534 -22 679 135 679 345ZM590 360C590 165 482 43 368 43C250 43 145 168 145 360C145 543 255 652 367 652C483 652 590 539 590 360ZM1171 0L1171 444L1093 444L1093 154C1093 79 1037 44 973 44C902 44 895 70 895 113L895 444L817 444L817 109C817 37 840 -11 923 -11C976 -11 1047 5 1096 48L1096 0ZM1585 27L1569 86C1543 65 1511 53 1479 53C1442 53 1428 83 1428 136L1428 386L1569 386L1569 444L1428 444L1428 571L1359 571L1359 444L1272 444L1272 386L1356 386L1356 119C1356 59 1370 -11 1439 -11C1509 -11 1560 14 1585 27ZM1770 0L1770 694L1695 694L1695 0ZM2267 219C2267 253 2266 328 2227 388C2186 450 2125 461 2089 461C1978 461 1888 355 1888 226C1888 94 1984 -11 2104 -11C2167 -11 2224 13 2263 41L2257 106C2194 54 2128 50 2105 50C2025 50 1961 121 1958 219ZM2210 274L1963 274C1979 350 2032 400 2089 400C2141 400 2197 366 2210 274ZM2629 27L2613 86C2587 65 2555 53 2523 53C2486 53 2472 83 2472 136L2472 386L2613 386L2613 444L2472 444L2472 571L2403 571L2403 444L2316 444L2316 386L2400 386L2400 119C2400 59 2414 -11 2483 -11C2553 -11 2604 14 2629 27Z" stroke="rgb(255,255,255)" stroke-opacity="1" stroke-width="8" fill="rgb(255,255,255)" fill-opacity="1"></path></g></g></g></g><g><g><g><g transform="matrix(1,0,0,1,198.4625244140625,89.4000030517578)"><path transform="matrix(0.0136,0,0,-0.0136,0,0)" d="M332 27L316 86C290 65 258 53 226 53C189 53 175 83 175 136L175 386L316 386L316 444L175 444L175 571L106 571L106 444L19 444L19 386L103 386L103 119C103 59 117 -11 186 -11C256 -11 307 14 332 27Z" stroke="rgb(0,0,0)" stroke-opacity="1" stroke-width="8" fill="rgb(0,0,0)" fill-opacity="1"></path></g></g></g></g><g><g><g><g transform="matrix(1,0,0,1,104.4625244140625,15.39998779296875)"><path transform="matrix(0.0136,0,0,-0.0136,0,0)" d="M415 40L409 107C358 67 304 53 253 53C170 53 114 125 114 223C114 301 151 397 257 397C309 397 343 389 398 353L410 418C351 452 317 461 256 461C117 461 36 340 36 222C36 98 127 -11 252 -11C306 -11 361 3 415 40Z" stroke="rgb(0,0,0)" stroke-opacity="1" stroke-width="8" fill="rgb(0,0,0)" fill-opacity="1"></path></g></g></g></g></svg>
</svg>
